<?xml version="1.0" encoding="UTF-8"?>
<svg id="Layer_1" xmlns="http://www.w3.org/2000/svg" width="1213" height="597" version="1.1" viewBox="0 0 1213 597">
  <defs>
    <style>
      .st0 { fill: url(#linear-gradient1); }
      .st1 { fill: url(#linear-gradient); }
    </style>
    <linearGradient id="linear-gradient" x1="198.5335103" y1="322.3566085" x2="681.6843093" y2="237.1640869" gradientUnits="userSpaceOnUse">
      <stop offset="0" stop-color="#2c255e"/>
      <stop offset=".5" stop-color="#393471"/>
      <stop offset="1" stop-color="#5a599b"/>
    </linearGradient>
    <linearGradient id="linear-gradient1" x1="690.3447161" y1="311.5174954" x2="1022.4862394" y2="252.9519835" gradientUnits="userSpaceOnUse">
      <stop offset="0" stop-color="#328dd5"/>
      <stop offset=".5" stop-color="#43c2e2"/>
      <stop offset="1" stop-color="#50dfee"/>
    </linearGradient>
  </defs>
  <path class="st1" d="M212.708291,286.2434473l10.7875977-34.9746094h14.1811523l10.7011719,34.9746094,12.0927734-34.9746094h14.703125l-21.2280273,60.8134766h-10.0917969l-13.3110352-42.2822266-13.2241211,42.2822266h-10.0922852l-21.2280273-60.8134766h14.703125l12.0063477,34.9746094ZM314.7937402,312.0823145h-12.2670898v-5.6552734c-3.3642578,4.234375-7.5253906,6.3515625-12.484375,6.3515625s-9.121582-1.4355469-12.484375-4.3066406c-3.3647461-2.8710938-5.0463867-6.6992188-5.0463867-11.484375s1.7402344-8.3652344,5.2202148-10.7441406c3.4799805-2.3779297,8.2348633-3.5673828,14.2680664-3.5673828h9.7441406v-.2607422c0-4.9873047-2.6401367-7.4824219-7.9169922-7.4824219-2.262207,0-4.6547852.4501953-7.1777344,1.3486328-2.5229492.9003906-4.6542969,2.0166016-6.3945312,3.3496094l-5.8291016-8.4384766c6.1474609-4.4658203,13.1655273-6.6992188,21.0541992-6.6992188,5.6835938,0,10.3232422,1.421875,13.9199219,4.2626953,3.5957031,2.8427734,5.394043,7.3378906,5.394043,13.4853516v29.8408203ZM301.6565332,294.2473535v-2.2617188h-8.1777344c-5.2202148,0-7.8300781,1.6240234-7.8300781,4.8720703,0,1.6826172.6225586,2.9726562,1.8706055,3.8710937,1.246582.9003906,3.0297852,1.3486328,5.3505859,1.3486328,2.3188477,0,4.3632812-.7099609,6.1333008-2.1318359,1.7685547-1.4199219,2.6533203-3.3193359,2.6533203-5.6982422ZM337.4914941,274.6721582v20.9667969c0,1.7988281.4633789,3.2060547,1.3920898,4.2197266.9272461,1.015625,2.0292969,1.5224609,3.3061523,1.5224609,2.4355469,0,4.4936523-1.1005859,6.1767578-3.3056641l4.8720703,9.1347656c-4.0605469,3.7128906-8.3383789,5.5683594-12.8325195,5.5683594-4.4956055,0-8.2949219-1.4794922-11.3969727-4.4375-3.1035156-2.9580078-4.6547852-6.9882812-4.6547852-12.0927734v-21.5761719h-5.480957v-9.3955078h5.480957v-14.0078125h13.137207v14.0078125h11.3100586v9.3955078h-11.3100586ZM377.4231348,301.2073145c4.3500977,0,8.2651367-2.1748047,11.7451172-6.5253906l7.7426758,8.7001953c-6.0327148,6.2646484-12.5576172,9.3964844-19.574707,9.3964844-7.0185547,0-12.949707-2.21875-17.7915039-6.65625-4.84375-4.4365234-7.2646484-10.2353516-7.2646484-17.3994141,0-7.1630859,2.449707-12.9912109,7.3515625-17.4873047,4.9003906-4.4941406,10.7143555-6.7421875,17.4433594-6.7421875,3.3632812,0,6.7709961.6962891,10.2226562,2.0878906,3.4501953,1.3916016,6.4814453,3.4511719,9.0913086,6.1767578l-6.7856445,8.8740234c-1.5092773-1.796875-3.3496094-3.1884766-5.5249023-4.1757812-2.1748047-.9853516-4.3364258-1.4794922-6.4814453-1.4794922-3.4228516,0-6.3657227,1.1181641-8.8305664,3.3496094-2.4658203,2.2333984-3.6972656,5.3369141-3.6972656,9.3095703,0,3.9736328,1.2314453,7.0615234,3.6972656,9.265625,2.4648438,2.2041016,5.3505859,3.3056641,8.6567383,3.3056641ZM414.4753809,286.8518457v25.2304687h-13.050293v-64.5537109h13.050293v22.9677734c3.9433594-4.0019531,8.3657227-6.0029297,13.2675781-6.0029297,4.9003906,0,9.0327148,1.7402344,12.3974609,5.2197266,3.362793,3.4804688,5.0458984,8.1210938,5.0458984,13.9199219v28.4492187h-13.0498047v-25.578125c0-7.1914062-2.6401367-10.7880859-7.9169922-10.7880859-2.6103516,0-4.887207.9433594-6.8295898,2.828125-1.9438477,1.8847656-2.9145508,4.6542969-2.9145508,8.3076172ZM467.5969629,274.6721582v20.9667969c0,1.7988281.4633789,3.2060547,1.3920898,4.2197266.9272461,1.015625,2.0292969,1.5224609,3.3061523,1.5224609,2.4355469,0,4.4936523-1.1005859,6.1767578-3.3056641l4.8720703,9.1347656c-4.0605469,3.7128906-8.3383789,5.5683594-12.8325195,5.5683594-4.4956055,0-8.2949219-1.4794922-11.3969727-4.4375-3.1035156-2.9580078-4.6547852-6.9882812-4.6547852-12.0927734v-21.5761719h-5.480957v-9.3955078h5.480957v-14.0078125h13.137207v14.0078125h11.3100586v9.3955078h-11.3100586ZM531.836709,288.6789941c0,6.7861328-2.3491211,12.5-7.046875,17.1396484-4.6982422,4.640625-10.6005859,6.9599609-17.7045898,6.9599609-7.1054688,0-13.0063477-2.3193359-17.7045898-6.9599609-4.6977539-4.6396484-7.046875-10.3535156-7.046875-17.1396484s2.3491211-12.5126953,7.046875-17.1826172c4.6982422-4.6679688,10.5991211-7.0029297,17.7045898-7.0029297,7.1040039,0,13.0063477,2.3349609,17.7045898,7.0029297,4.6977539,4.6699219,7.046875,10.3964844,7.046875,17.1826172ZM495.4709863,288.6789941c0,3.828125,1.0874023,6.9462891,3.262207,9.3525391,2.175293,2.4082031,4.9589844,3.6103516,8.3520508,3.6103516s6.1772461-1.2021484,8.3520508-3.6103516c2.1748047-2.40625,3.2626953-5.5244141,3.2626953-9.3525391s-1.0878906-6.9599609-3.2626953-9.3955078c-2.1748047-2.4365234-4.9589844-3.6542969-8.3520508-3.6542969s-6.1767578,1.2177734-8.3520508,3.6542969c-2.1748047,2.4355469-3.262207,5.5673828-3.262207,9.3955078ZM560.2063379,312.0823145h-13.4853516l-15.9208984-46.8056641h13.4853516l9.1347656,28.2744141,9.1347656-28.2744141h12.6152344l9.1347656,28.2744141,9.1357422-28.2744141h13.5712891l-15.9208984,46.8056641h-13.5722656l-8.6123047-25.4912109-8.7001953,25.4912109ZM649.536416,305.2961816c-5.2783203,4.9892578-11.4697266,7.4824219-18.5742188,7.4824219-7.1054688,0-12.9775391-2.1884766-17.6171875-6.5683594-4.6416016-4.3789062-6.9599609-10.2519531-6.9599609-17.6181641,0-7.3652344,2.3623047-13.2236328,7.0898437-17.5742188,4.7265625-4.3496094,10.3095703-6.5244141,16.7480469-6.5244141,6.4375,0,11.9033203,1.9433594,16.3994141,5.8291016,4.4941406,3.8857422,6.7421875,9.2216797,6.7421875,16.0078125v6.9599609h-34.1035156c.4042969,2.5527344,1.7392578,4.640625,4.0019531,6.2636719,2.2617188,1.625,4.8134766,2.4365234,7.6552734,2.4365234,4.5810547,0,8.3525391-1.5361328,11.3105469-4.6113281l7.3076172,7.9169922ZM637.0090723,277.543252c-1.7988281-1.5078125-3.9892578-2.2617188-6.5693359-2.2617188-2.5810547,0-4.9453125.7832031-7.0898438,2.3486328-2.1464844,1.5664062-3.3935547,3.6835938-3.7412109,6.3515625h20.5322266c-.2910156-2.7841797-1.3349609-4.9296875-3.1318359-6.4384766ZM684.0666895,276.7600488c-3.8867188,0-6.7861328,1.3789062-8.7001953,4.1328125-1.9140625,2.7558594-2.8710938,6.3945312-2.8710938,10.9179688v20.2714844h-13.0498047v-46.8056641h13.0498047v6.1767578c1.6816406-1.9140625,3.7851562-3.5371094,6.3076172-4.8720703,2.5234375-1.3339844,5.0898438-2.0292969,7.7001953-2.0878906l.0869141,12.2666016h-2.5234375Z"/>
  <path class="st0" d="M733.4993066,304.2092676c-1.7392578,2.6396484-4.3798828,4.7275391-7.9169922,6.2636719-3.5380859,1.5371094-7.8876953,2.3056641-13.0498047,2.3056641-4.5820312,0-9.0039062-.7099609-13.2675781-2.1318359-4.2626953-1.4208984-7.6123047-3.2626953-10.0478516-5.5244141l3.21875-6.7861328c2.3193359,2.0878906,5.2919922,3.7841797,8.9169922,5.0898437,3.6240234,1.3046875,7.3515625,1.9570312,11.1796875,1.9570312,5.0458984,0,8.8154297-.8544922,11.3105469-2.5664062,2.4931641-1.7099609,3.7402344-3.9873047,3.7402344-6.8291016,0-2.0878906-.6816406-3.7851562-2.0439453-5.0898438-1.3632812-1.3046875-3.0449219-2.3056641-5.0458984-3.0009766-2.0009766-.6962891-4.8291016-1.4794922-8.4824219-2.3496094-4.5830078-1.1005859-8.2802734-2.203125-11.0927734-3.3056641-2.8134766-1.1015625-5.2197266-2.7978516-7.2207031-5.0898438-2.0009766-2.2900391-3.0019531-5.3789062-3.0019531-9.265625,0-3.2470703.8554688-6.1767578,2.5664062-8.7871094,1.7099609-2.609375,4.3066406-4.6972656,7.7871094-6.2636719,3.4794922-1.5664062,7.7998047-2.3486328,12.9628906-2.3486328,3.5957031,0,7.1337891.4648438,10.6132812,1.3916016,3.4804688.9287109,6.4667969,2.2617188,8.9609375,4.0019531l-2.8701172,6.9599609c-2.5537109-1.6230469-5.2792969-2.8554688-8.1787109-3.6972656-2.9003906-.8398438-5.7412109-1.2617188-8.5253906-1.2617188-4.9306641,0-8.6279297.9003906-11.0927734,2.6972656-2.4658203,1.7988281-3.6972656,4.1191406-3.6972656,6.9599609,0,2.0878906.6953125,3.7841797,2.0878906,5.0898438,1.3916016,1.3046875,3.1171875,2.3203125,5.1767578,3.0449219,2.0576172.7255859,4.8564453,1.4931641,8.3955078,2.3056641,4.5810547,1.1015625,8.2646484,2.2041016,11.0488281,3.3056641,2.7841797,1.1025391,5.1757812,2.7841797,7.1777344,5.0458984,2.0009766,2.2617188,3.0009766,5.3066406,3.0009766,9.1347656,0,3.1904297-.8701172,6.1054687-2.6103516,8.7441406ZM813.0932375,287.9397363c-2.2919922-.7246094-5.2939453-1.4052734-9.0048828-2.0439453-2.7841797-.5224609-4.9453125-.9863281-6.4814453-1.3925781-1.5371094-.4052734-2.8271484-1.0439453-3.8710938-1.9140625-1.0449219-.8701172-1.5664062-2.0576172-1.5664062-3.5664062,0-1.9140625.9267578-3.4501953,2.7841797-4.6113281,1.8554688-1.1591797,4.5527344-1.7402344,8.0908203-1.7402344,5.1035156,0,9.5400391,1.2177734,13.3105469,3.6542969l3.5673828-6.6123047c-1.9726562-1.2753906-4.4951172-2.2900391-7.5693359-3.0449219-3.0742188-.7529297-6.1484375-1.1308594-9.2216797-1.1308594-5.8583984,0-10.5273438,1.2617188-14.0068359,3.7841797-3.4804688,2.5234375-5.2197266,5.8730469-5.2197266,10.0488281,0,3.2490234.8398438,5.7714844,2.5224609,7.5693359,1.6816406,1.7978516,3.6972656,3.0742188,6.046875,3.8271484,2.3486328.7548828,5.3789062,1.421875,9.0908203,2.0009766,2.7255859.4658203,4.8291016.8857422,6.3076172,1.2617188,1.4794922.3779297,2.7109375.9726562,3.6982422,1.7841797.9853516.8125,1.4785156,1.9130859,1.4785156,3.3056641,0,4.1757812-3.6542969,6.2636719-10.9619141,6.2636719-2.9580078,0-5.8876953-.4345703-8.7871094-1.3046875-2.9003906-.8701172-5.3652344-2.0292969-7.3945312-3.4804688l-3.4804688,6.6123047c1.9716797,1.5664062,4.6982422,2.8574219,8.1777344,3.8710938,3.4804688,1.0146484,7.1044922,1.5234375,10.875,1.5234375,6.1474609,0,11.0058594-1.2324219,14.5732422-3.6982422,3.5664062-2.4638672,5.3505859-5.7851562,5.3505859-9.9609375,0-3.1318359-.8134766-5.5683594-2.4365234-7.3085938ZM775.6779452,265.9719629l-15.9208984,36.8886719-16.0947266-36.8886719h-8.7001953l20.3574219,46.0234375-1.4785156,3.21875c-1.1025391,2.6103516-2.3359375,4.4511719-3.6972656,5.5244141-1.3632812,1.0732422-3.0605469,1.609375-5.0898438,1.609375-3.1318359,0-5.8876953-1.1308594-8.2646484-3.3925781l-3.5673828,6.2636719c1.3916016,1.3925781,3.1455078,2.4501953,5.2636719,3.1757812,2.1162109.7246094,4.3066406,1.0878906,6.5683594,1.0878906,3.7109375,0,6.8867188-.9570312,9.5263672-2.8710938,2.6386719-1.9140625,4.9443359-5.2207031,6.9169922-9.9179688l22.3583984-50.7216797h-8.1777344ZM965.8416461,265.5373926c-3.8857422,0-7.3808594.7539062-10.4833984,2.2617188-3.1035156,1.5087891-5.5244141,3.5966797-7.2646484,6.2646484-1.5087891-2.7841797-3.6533203-4.9013672-6.4375-6.3515625-2.7841797-1.4492188-5.9746094-2.1748047-9.5703125-2.1748047-3.4794922,0-6.5830078.6240234-9.3085938,1.8701172-2.7275391,1.2480469-4.9306641,3.0605469-6.6123047,5.4375v-6.8730469h-8.0039062v46.1103516h8.3515625v-23.7509766c0-4.9287109,1.2470703-8.7138672,3.7412109-11.3535156,2.4931641-2.6386719,5.8574219-3.9589844,10.0917969-3.9589844,3.828125,0,6.7714844,1.1318359,8.8310547,3.3935547,2.0576172,2.2617188,3.0888672,5.6259766,3.0888672,10.0917969v25.578125h8.3515625v-23.7509766c0-4.9287109,1.2460938-8.7138672,3.7412109-11.3535156,2.4931641-2.6386719,5.8574219-3.9589844,10.0917969-3.9589844,3.828125,0,6.7705078,1.1318359,8.8300781,3.3935547,2.0585938,2.2617188,3.0888672,5.6259766,3.0888672,10.0917969v25.578125h8.3515625v-26.5351562c0-6.6123047-1.6962891-11.5996094-5.0888672-14.9638672-3.3935547-3.3632812-7.9902344-5.0458984-13.7900391-5.0458984ZM1024.4846582,291.637002c-1.6240234-1.7392578-3.5820312-2.9716797-5.8720703-3.6972656-2.2919922-.7246094-5.2939453-1.4052734-9.0048828-2.0439453-2.7841797-.5224609-4.9453125-.9863281-6.4814453-1.3925781-1.5371094-.4052734-2.8271484-1.0439453-3.8710938-1.9140625-1.0449219-.8701172-1.5664062-2.0576172-1.5664062-3.5664062,0-1.9140625.9267578-3.4501953,2.7841797-4.6113281,1.8554688-1.1591797,4.5527344-1.7402344,8.0908203-1.7402344,5.1035156,0,9.5400391,1.2177734,13.3105469,3.6542969l3.5673828-6.6123047c-1.9726562-1.2753906-4.4951172-2.2900391-7.5693359-3.0449219-3.0742188-.7529297-6.1484375-1.1308594-9.2216797-1.1308594-5.8583984,0-10.5273438,1.2617188-14.0068359,3.7841797-3.4804688,2.5234375-5.2197266,5.8730469-5.2197266,10.0488281,0,3.2490234.8398438,5.7714844,2.5224609,7.5693359,1.6816406,1.7978516,3.6972656,3.0742188,6.046875,3.8271484,2.3486328.7548828,5.3789062,1.421875,9.0908203,2.0009766,2.7255859.4658203,4.8291016.8857422,6.3076172,1.2617188,1.4794922.3779297,2.7109375.9726562,3.6982422,1.7841797.9853516.8125,1.4785156,1.9130859,1.4785156,3.3056641,0,4.1757812-3.6542969,6.2636719-10.9619141,6.2636719-2.9580078,0-5.8876953-.4345703-8.7871094-1.3046875-2.9003906-.8701172-5.3652344-2.0292969-7.3945312-3.4804688l-3.4804688,6.6123047c1.9716797,1.5664062,4.6982422,2.8574219,8.1777344,3.8710938,3.4804688,1.0146484,7.1044922,1.5234375,10.875,1.5234375,6.1474609,0,11.0058594-1.2324219,14.5732422-3.6982422,3.5664062-2.4638672,5.3505859-5.7851562,5.3505859-9.9609375,0-3.1318359-.8134766-5.5683594-2.4365234-7.3085938Z"/>
</svg>
